<svg xmlns="http://www.w3.org/2000/svg">
<symbol id="icon-angle-left" viewBox="0 0 6 10"><path d="M5.098 10a.826.826 0 0 1-.6-.235L.33 5.596a.804.804 0 0 1 0-1.173L4.499.254a.804.804 0 0 1 1.172 0 .804.804 0 0 1 0 1.173l-3.57 3.57 3.57 3.596a.804.804 0 0 1 0 1.172.808.808 0 0 1-.573.235z"/></symbol>
<symbol id="icon-angle-right" viewBox="0 0 6 10"><path d="M.928 10a.826.826 0 0 1-.599-.235.804.804 0 0 1 0-1.172l3.57-3.596-3.57-3.57a.804.804 0 0 1 0-1.173.804.804 0 0 1 1.173 0l4.169 4.17a.804.804 0 0 1 0 1.172l-4.17 4.17A.808.808 0 0 1 .929 10z"/></symbol>
<symbol id="icon-wheelchair" viewBox="0 0 20 21"><path d="M19.922 16.984a1.317 1.317 0 0 0-1.602-.78l-.742.273-1.64-3.907c-.196-.508-.626-.82-1.133-.82h-3.828l-.43-1.875h2.578c.664 0 1.25-.547 1.25-1.25 0-.664-.586-1.25-1.25-1.25h-3.086l-.078-.234c-.156-1.055-1.094-1.758-2.11-1.602-1.054.156-1.757 1.094-1.601 2.11l.938 5.507c.039.625.585 1.094 1.25 1.094h5.507l1.758 4.219c.195.508.664.781 1.172.781.117 0 .234 0 .39-.04l1.876-.624c.625-.234.976-.938.78-1.602zM6.25 18.625a4.368 4.368 0 0 1-4.375-4.375 4.318 4.318 0 0 1 3.516-4.258l-.313-1.875A6.247 6.247 0 0 0 0 14.25a6.219 6.219 0 0 0 6.25 6.25c3.008 0 5.508-2.11 6.094-5H10.43c-.586 1.836-2.227 3.125-4.18 3.125zM7.5 4.25c1.016 0 1.875-.82 1.875-1.875C9.375 1.359 8.515.5 7.5.5c-1.055 0-1.875.86-1.875 1.875 0 1.055.82 1.875 1.875 1.875z"/></symbol>
</svg>