<svg width="39" height="38" viewBox="0 0 39 38" fill="none" xmlns="http://www.w3.org/2000/svg">
<mask id="path-1-inside-1_44_394" fill="white">
<path d="M0 0H35C37.2091 0 39 1.79086 39 4V34C39 36.2091 37.2091 38 35 38H0V0Z"/>
</mask>
<path d="M0 0H35C37.2091 0 39 1.79086 39 4V34C39 36.2091 37.2091 38 35 38H0V0Z" fill="#F7F8FA"/>
<path d="M19.5156 22.4915C19.2347 22.4915 18.985 22.3979 18.7978 22.2106L13.8043 17.2171C13.3986 16.8426 13.3986 16.1872 13.8043 15.8127C14.1788 15.407 14.8342 15.407 15.2087 15.8127L19.5156 20.0884L23.7913 15.8127C24.1658 15.407 24.8212 15.407 25.1957 15.8127C25.6014 16.1872 25.6014 16.8426 25.1957 17.2171L20.2022 22.2106C20.015 22.3979 19.7653 22.4915 19.5156 22.4915Z" fill="#333333"/>
<path d="M0 0H39H0ZM39 38H0H39ZM-1 38V0H1V38H-1ZM39 0V38V0Z" fill="#D6DADF" mask="url(#path-1-inside-1_44_394)"/>
</svg>
